<?xml version="1.0" standalone="no"?>
<!DOCTYPE svg PUBLIC "-//W3C//DTD SVG 20010904//EN"
 "http://www.w3.org/TR/2001/REC-SVG-20010904/DTD/svg10.dtd">
<svg version="1.0" xmlns="http://www.w3.org/2000/svg"
 width="680.000000pt" height="307.000000pt" viewBox="0 0 680.000000 307.000000"
 preserveAspectRatio="xMidYMid meet">

<g transform="translate(0.000000,307.000000) scale(0.100000,-0.100000)"
fill="#000000" stroke="none">
<path d="M3705 2898 c-3 -7 -6 -58 -7 -113 l-3 -100 -263 -3 -263 -2 -101 105
c-104 108 -131 125 -167 106 -42 -23 -766 -762 -775 -791 -16 -55 41 -108 94
-88 14 5 177 162 362 349 185 186 341 339 346 339 7 0 200 -197 552 -562 90
-94 121 -120 153 -129 28 -7 187 -9 526 -4 549 8 531 5 531 79 0 46 4 41 -245
321 -34 39 -75 86 -91 105 -16 19 -38 45 -49 56 -11 12 -37 40 -58 62 -44 48
-74 55 -221 52 -55 -2 -107 -2 -113 -1 -10 1 -13 31 -13 116 l0 115 -95 0
c-67 0 -97 -4 -100 -12z"/>
<path d="M2700 2205 l0 -85 85 0 85 0 0 85 0 85 -85 0 -85 0 0 -85z"/>
<path d="M2980 2205 l0 -85 80 0 80 0 0 85 0 85 -80 0 -80 0 0 -85z"/>
<path d="M2707 2023 c-4 -3 -7 -42 -7 -85 l0 -78 85 0 85 0 0 85 0 85 -78 0
c-43 0 -82 -3 -85 -7z"/>
<path d="M2980 1945 l0 -85 80 0 80 0 0 85 0 85 -80 0 -80 0 0 -85z"/>
<path d="M1399 1446 c-31 -12 -70 -33 -87 -45 -60 -42 -142 -162 -142 -206 0
-13 -4 -27 -10 -30 -6 -3 -10 -48 -10 -100 0 -52 4 -97 10 -100 6 -3 10 -15
10 -26 0 -31 44 -109 89 -161 84 -95 246 -143 377 -113 78 18 94 26 145 72 46
42 48 56 13 80 -23 15 -28 15 -38 2 -22 -28 -92 -67 -143 -79 -98 -22 -228 14
-290 82 -46 50 -92 165 -93 235 0 48 22 135 42 165 10 14 18 30 18 35 0 16 84
91 127 113 90 46 215 33 289 -32 l34 -30 30 22 c16 12 30 27 30 33 -1 20 -86
78 -136 93 -75 22 -198 18 -265 -10z"/>
<path d="M2204 1451 c-67 -24 -104 -45 -134 -74 -39 -38 -70 -76 -70 -87 0 -6
-4 -10 -8 -10 -5 0 -18 -29 -30 -64 -17 -48 -22 -87 -22 -159 0 -53 4 -99 10
-102 6 -3 10 -17 10 -31 0 -28 63 -125 106 -165 99 -89 251 -122 392 -85 190
51 310 256 272 465 -12 68 -39 141 -52 141 -5 0 -8 4 -8 10 0 21 -67 91 -120
126 -81 54 -245 70 -346 35z m214 -63 c76 -19 182 -94 182 -128 0 -6 5 -10 10
-10 6 0 10 -9 10 -20 0 -11 4 -20 9 -20 11 0 21 -46 28 -124 11 -132 -67 -270
-185 -328 -71 -34 -198 -32 -273 5 -114 55 -171 148 -177 286 -4 70 0 93 19
143 62 158 214 237 377 196z"/>
<path d="M3439 1448 c-107 -38 -185 -113 -234 -228 -16 -36 -20 -67 -20 -160
1 -110 2 -118 34 -179 73 -143 177 -211 333 -219 110 -6 180 15 243 70 50 44
55 60 24 82 -19 13 -23 13 -41 -3 -10 -10 -42 -31 -71 -47 -48 -27 -60 -29
-144 -28 -80 2 -98 5 -143 30 -58 31 -96 73 -131 142 -21 39 -24 60 -24 152 0
94 3 112 25 156 46 90 93 136 169 165 94 35 212 17 278 -44 20 -17 26 -18 53
-7 37 15 38 34 3 66 -79 71 -234 94 -354 52z"/>
<path d="M4911 1451 c-106 -37 -143 -87 -144 -193 -1 -74 12 -108 58 -150 33
-31 109 -70 128 -66 7 1 27 -6 45 -15 18 -10 46 -19 61 -20 16 -1 27 -5 25 -9
-2 -3 9 -12 25 -19 16 -7 28 -16 25 -20 -2 -4 0 -10 6 -14 5 -3 10 -15 10 -26
0 -10 5 -19 11 -19 6 0 9 6 6 14 -3 8 1 20 8 26 13 11 13 6 1 -34 -8 -25 -11
-46 -8 -46 3 0 1 -5 -6 -12 -7 -7 -12 -20 -12 -31 0 -11 -4 -15 -12 -11 -7 5
-9 2 -5 -8 4 -11 -2 -18 -16 -22 -19 -5 -20 -8 -7 -17 13 -9 12 -10 -2 -5 -10
3 -30 -1 -45 -9 -60 -32 -178 -14 -241 35 -23 19 -28 20 -38 6 -6 -9 -14 -13
-17 -9 -4 3 -9 -1 -13 -10 -7 -19 21 -51 36 -42 6 4 7 -1 3 -11 -5 -14 -3 -16
11 -11 9 4 15 3 12 -2 -9 -13 50 -34 76 -26 18 5 20 4 8 -4 -11 -8 1 -11 46
-11 77 0 126 9 117 23 -3 5 -1 7 4 4 29 -18 141 67 130 97 -4 9 -2 18 3 21 4
3 10 0 12 -6 2 -7 4 27 3 75 0 65 -4 89 -15 96 -8 5 -17 7 -20 5 -3 -2 -5 10
-4 26 l2 31 -26 -24 c-15 -12 -21 -16 -14 -6 11 13 11 17 0 21 -7 2 -5 3 5 2
36 -6 14 14 -57 50 -50 25 -83 36 -100 33 -14 -3 -23 -2 -21 2 2 3 -14 15 -36
24 -22 10 -52 29 -67 43 -23 22 -27 33 -27 83 1 32 6 64 13 72 6 8 8 18 4 22
-4 4 0 6 8 4 8 -1 14 2 15 9 0 6 4 15 9 20 5 5 6 3 2 -4 -4 -7 -2 -13 3 -13 6
0 11 4 11 8 0 12 20 14 130 16 89 2 130 -7 130 -28 0 -5 -9 -1 -20 9 -11 10
-22 16 -25 13 -3 -2 6 -14 19 -25 24 -21 24 -21 42 -2 22 24 29 56 10 40 -16
-13 -27 -4 -19 15 3 8 -1 14 -10 14 -9 0 -22 6 -29 13 -28 26 -151 31 -217 8z
m186 -15 c0 -8 -6 -12 -15 -9 -11 5 -11 7 0 14 7 5 13 9 14 9 0 0 1 -6 1 -14z
m84 -619 c-10 -9 -11 -8 -5 6 3 10 9 15 12 12 3 -3 0 -11 -7 -18z m0 -60 c-10
-9 -11 -8 -5 6 3 10 9 15 12 12 3 -3 0 -11 -7 -18z m-204 -53 c-3 -3 -12 -4
-19 -1 -8 3 -5 6 6 6 11 1 17 -2 13 -5z"/>
<path d="M180 1458 c-1 -2 -3 -20 -6 -40 l-6 -37 132 -3 132 -3 -1 -353 -2
-353 43 3 43 3 2 343 c1 188 5 347 8 352 4 6 61 10 131 10 l124 0 0 40 0 40
-300 0 c-165 0 -300 -1 -300 -2z"/>
<path d="M905 1448 c-3 -7 -4 -184 -3 -393 l3 -380 35 0 35 0 0 390 0 390 -33
3 c-20 2 -34 -2 -37 -10z"/>
<path d="M4259 1445 c-1 -3 -2 -9 -3 -14 0 -5 -4 -13 -8 -17 -5 -4 -8 -15 -8
-25 0 -9 -3 -19 -7 -21 -11 -4 -43 -67 -43 -84 0 -8 -4 -14 -10 -14 -5 0 -10
-9 -10 -19 0 -11 -4 -23 -10 -26 -5 -3 -10 -15 -10 -26 0 -10 -4 -19 -10 -19
-5 0 -10 -11 -10 -25 0 -14 -4 -25 -10 -25 -5 0 -10 -11 -10 -25 0 -14 -4 -25
-10 -25 -5 0 -10 -7 -10 -16 0 -9 -14 -44 -31 -78 -17 -33 -33 -70 -35 -81 -2
-11 -8 -21 -13 -23 -5 -2 -15 -23 -22 -48 -7 -24 -17 -44 -21 -44 -4 0 -8 -11
-8 -25 0 -14 -4 -25 -10 -25 -5 0 -10 -9 -10 -19 0 -11 -5 -23 -11 -27 -19
-11 12 -22 49 -17 22 4 32 11 32 24 0 10 5 21 10 24 6 3 10 17 10 31 0 13 5
24 10 24 6 0 10 9 10 19 0 11 5 23 10 26 6 3 10 15 10 26 0 10 6 19 13 20 64
4 414 -4 420 -10 4 -4 9 -17 10 -29 0 -11 5 -18 9 -16 4 3 8 -2 8 -11 0 -19
48 -117 62 -126 15 -10 58 2 58 17 0 7 -4 15 -9 18 -4 3 -16 27 -26 53 -16 44
-34 86 -70 168 -8 16 -11 33 -9 37 3 4 0 8 -5 8 -6 0 -11 7 -11 15 0 8 -4 23
-9 33 -5 9 -14 31 -21 47 -11 27 -49 110 -72 157 -4 10 -8 25 -8 33 0 8 -4 15
-10 15 -5 0 -10 7 -10 15 0 8 -9 30 -20 49 -10 19 -21 46 -22 58 -5 37 -17 48
-54 48 -19 0 -35 -2 -35 -5z m65 -137 c9 -17 16 -39 16 -49 0 -9 8 -34 19 -56
33 -68 73 -158 81 -178 4 -11 12 -32 18 -47 l11 -27 -172 -3 c-95 -2 -175 -2
-180 0 -4 2 -1 15 7 30 7 15 24 50 36 77 12 28 26 58 31 67 5 10 9 27 9 38 0
11 5 20 10 20 6 0 10 11 10 25 0 14 5 25 10 25 6 0 10 9 10 20 0 11 4 28 9 38
5 9 12 25 15 35 9 28 43 20 60 -15z"/>
<path d="M5665 1440 c-3 -5 -1 -10 4 -10 6 0 11 5 11 10 0 6 -2 10 -4 10 -3 0
-8 -4 -11 -10z"/>
<path d="M5700 1440 c0 -5 7 -7 15 -4 8 4 15 8 15 10 0 2 -7 4 -15 4 -8 0 -15
-4 -15 -10z"/>
<path d="M5736 1397 c3 -10 9 -15 12 -12 3 3 0 11 -7 18 -10 9 -11 8 -5 -6z"/>
<path d="M5643 1378 c2 -7 10 -12 17 -10 6 1 10 -3 7 -10 -2 -7 -11 -12 -20
-12 -9 1 -14 -2 -11 -7 7 -13 34 -11 34 2 0 5 3 8 8 6 4 -3 16 -1 26 3 17 6
18 7 3 13 -10 4 -17 1 -17 -6 0 -6 -7 -1 -16 11 -16 23 -39 30 -31 10z"/>
<path d="M5726 1367 c3 -10 9 -15 12 -12 3 3 0 11 -7 18 -10 9 -11 8 -5 -6z"/>
<path d="M5754 1362 c4 -7 3 -19 -4 -27 -9 -10 -8 -19 1 -37 9 -16 14 -19 17
-9 2 7 -1 17 -9 21 -10 7 -10 11 1 25 11 13 11 18 0 28 -10 9 -11 9 -6 -1z"/>
<path d="M5620 1315 c0 -5 5 -17 10 -25 5 -8 10 -10 10 -5 0 6 -5 17 -10 25
-5 8 -10 11 -10 5z"/>
<path d="M5598 1258 c9 -11 10 -18 2 -23 -5 -3 -10 0 -10 7 0 9 -3 9 -10 -2
-13 -20 -13 -33 0 -25 6 3 7 -1 4 -9 -3 -9 -10 -14 -14 -11 -5 3 -12 0 -16 -6
-4 -8 -3 -9 4 -5 7 4 12 3 12 -2 0 -6 6 -12 14 -15 9 -4 12 0 9 12 -2 10 3 25
11 34 21 20 20 31 -1 48 -16 13 -17 12 -5 -3z"/>
<path d="M5759 1253 c-13 -16 -12 -17 4 -4 16 13 21 21 13 21 -2 0 -10 -8 -17
-17z"/>
<path d="M5786 1252 c-2 -4 -1 -14 3 -21 6 -10 10 -9 14 3 6 16 -8 32 -17 18z"/>
<path d="M5543 1158 c-17 -23 -22 -45 -11 -56 8 -8 8 -16 1 -24 -12 -17 -14
-58 -2 -58 5 0 9 11 9 24 0 13 6 26 13 29 9 3 7 9 -5 24 -16 18 -16 21 -2 42
17 23 14 41 -3 19z"/>
<path d="M5797 1153 c3 -7 6 -13 8 -13 2 0 5 6 8 13 3 8 -1 14 -8 14 -7 0 -11
-6 -8 -14z"/>
<path d="M5500 1068 c-4 -13 -7 -27 -9 -44 0 -8 -5 -13 -9 -10 -4 2 -8 -4 -8
-15 0 -10 6 -19 13 -19 7 0 10 -7 6 -16 -5 -13 -8 -13 -15 -2 -7 9 -8 7 -5 -9
5 -24 -8 -32 -16 -10 -3 7 -6 5 -6 -5 -1 -10 -6 -18 -12 -18 -5 0 -7 -5 -4
-10 10 -16 -5 -51 -18 -44 -7 4 -9 4 -5 -1 4 -4 1 -17 -7 -29 -17 -23 -20 -50
-5 -41 6 4 8 11 5 16 -4 5 -1 9 6 9 7 0 9 3 6 7 -4 3 1 12 10 18 10 7 23 28
30 46 l13 34 -3 -45 c-2 -25 -2 -37 0 -26 3 10 13 21 24 23 18 5 18 6 3 18 -9
6 -14 18 -11 26 4 10 6 9 6 -3 1 -10 7 -18 15 -18 8 0 16 -4 18 -9 2 -5 9 -3
16 5 11 12 9 14 -12 14 -31 0 -43 30 -20 47 10 7 14 13 8 13 -5 0 -2 5 6 10
12 8 10 10 -10 10 -17 0 -21 3 -12 9 9 5 12 21 9 42 -2 19 -5 31 -7 27z"/>
<path d="M5855 990 c-3 -5 -1 -10 4 -10 6 0 11 5 11 10 0 6 -2 10 -4 10 -3 0
-8 -4 -11 -10z"/>
<path d="M5886 977 c3 -10 9 -15 12 -12 3 3 0 11 -7 18 -10 9 -11 8 -5 -6z"/>
<path d="M5529 937 c9 -11 26 -16 52 -15 46 2 44 10 -3 12 -18 1 -40 5 -48 10
-13 9 -13 8 -1 -7z"/>
<path d="M5635 900 c-2 -4 22 -7 53 -7 59 -1 54 3 -11 9 -21 2 -40 1 -42 -2z"/>
<path d="M5431 828 c0 -7 4 -22 9 -33 6 -16 8 -14 7 13 0 17 -4 32 -9 32 -4 0
-8 -6 -7 -12z"/>
<path d="M5411 783 c-7 -8 -19 -12 -26 -9 -7 2 -16 -3 -20 -12 -3 -9 -1 -18 4
-20 6 -2 9 -8 6 -12 -3 -5 -12 -7 -19 -4 -9 3 -15 -4 -18 -20 -5 -24 -2 -26
27 -26 41 0 45 5 32 40 -8 22 -8 33 0 41 7 7 9 3 5 -17 -7 -38 15 -22 23 17 8
36 5 42 -14 22z m-16 -91 c-3 -3 -11 0 -18 7 -9 10 -8 11 6 5 10 -3 15 -9 12
-12z"/>
<path d="M1265 453 c-11 -2 -38 -19 -60 -37 -39 -33 -40 -35 -40 -99 0 -59 3
-69 28 -95 51 -54 146 -57 196 -8 20 21 3 20 -38 0 -49 -24 -109 -13 -141 25
-43 51 -36 116 17 169 23 23 86 26 127 7 45 -22 57 -14 19 12 -30 21 -75 32
-108 26z"/>
<path d="M5004 444 c-21 -8 -40 -14 -41 -14 0 0 -10 -16 -22 -36 -30 -51 -26
-66 5 -18 15 23 31 41 38 42 6 1 27 5 47 8 22 4 50 0 74 -10 45 -19 57 -14 22
9 -43 28 -80 34 -123 19z"/>
<path d="M1775 438 c-47 -27 -65 -61 -65 -120 0 -53 3 -60 38 -98 33 -34 45
-40 81 -40 85 0 141 55 141 139 0 36 -4 50 -16 55 -9 4 -14 9 -11 12 7 7 -7
22 -43 47 -28 19 -95 22 -125 5z m141 -39 c13 -12 24 -28 24 -36 0 -7 5 -13
10 -13 6 0 10 -18 10 -40 0 -22 -4 -40 -10 -40 -5 0 -10 -5 -10 -11 0 -19 -41
-48 -76 -55 -47 -9 -82 2 -115 36 -38 38 -40 95 -4 148 14 20 25 33 25 29 0
-4 8 -3 18 3 27 17 100 5 128 -21z"/>
<path d="M2350 444 c0 -7 52 -25 57 -20 2 2 -10 8 -26 14 -17 6 -31 9 -31 6z"/>
<path d="M5540 418 c-6 -18 -16 -43 -21 -55 -5 -13 -13 -33 -18 -45 -4 -13
-13 -34 -18 -48 -39 -95 -38 -90 -23 -90 6 0 17 18 26 40 l16 40 60 0 c58 0
59 -1 73 -34 16 -37 35 -56 35 -34 0 24 -95 251 -106 255 -6 2 -17 -11 -24
-29z m69 -119 c1 -4 -18 -9 -40 -11 -49 -4 -57 8 -38 55 24 62 32 64 56 11 12
-27 22 -52 22 -55z"/>
<path d="M2308 423 c7 -3 16 -2 19 1 4 3 -2 6 -13 5 -11 0 -14 -3 -6 -6z"/>
<path d="M2280 371 c0 -7 7 -19 15 -27 19 -20 19 -5 0 20 -9 11 -15 14 -15 7z"/>
<path d="M4910 308 c0 -5 8 -25 17 -46 33 -77 121 -105 192 -61 42 25 33 37
-13 15 -70 -33 -133 -13 -170 53 -14 25 -26 43 -26 39z"/>
<path d="M2417 204 c-3 -4 -21 -8 -38 -10 -18 -2 -35 -6 -38 -9 -3 -3 12 -4
33 -2 20 3 42 9 49 16 6 6 9 11 6 11 -3 0 -8 -3 -12 -6z"/>
</g>
</svg>
